<svg width="16" height="16" viewBox="0 0 16 16" fill="none" xmlns="http://www.w3.org/2000/svg">
<path id="Union" fill-rule="evenodd" clip-rule="evenodd" d="M2.40912 3.7334C2.36242 3.69151 2.31717 3.64784 2.27348 3.6023C1.83927 3.14971 1.6 2.55414 1.6 1.81658C1.6 1.4228 1.6938 1.06499 1.89123 0.767355C2.08944 0.468544 2.36993 0.26401 2.68631 0.142822C3.30178 -0.0929344 4.05542 -0.0193056 4.76392 0.235635C6.09496 0.71459 7.52234 1.92282 8.12899 3.72415C8.73565 1.92282 10.163 0.71459 11.4941 0.235635C12.2026 -0.0193056 12.9562 -0.0929344 13.5717 0.142822C13.8881 0.26401 14.1685 0.468544 14.3668 0.767355C14.5642 1.06499 14.658 1.4228 14.658 1.81658C14.658 2.55414 14.4187 3.14971 13.9845 3.6023C13.9408 3.64784 13.8956 3.69151 13.8489 3.7334H14.9333C15.5224 3.7334 16 4.21096 16 4.80006V14.9334C16 15.5225 15.5224 16.0001 14.9333 16.0001H1.06667C0.477564 16.0001 0 15.5225 0 14.9334V4.80006C0 4.21096 0.477563 3.7334 1.06667 3.7334H2.40912ZM7.59971 4.80006L6.4 4.80006V6.9334H9.6V4.80006H8.66153L8.56926 4.80006L8.52466 4.80006H8.41903H7.83896H7.73333L7.68873 4.80006C7.6592 4.80007 7.62952 4.80007 7.59971 4.80006ZM13.4779 1.35698C13.5393 1.44958 13.5913 1.59304 13.5913 1.81657C13.5913 2.30409 13.4417 2.62734 13.2148 2.86385C12.9746 3.11416 12.608 3.30799 12.1136 3.44705C11.3054 3.67436 10.2927 3.72126 9.26738 3.73091C9.81417 2.45285 10.8797 1.59034 11.8552 1.2393C12.4301 1.03245 12.9014 1.02832 13.1901 1.13891C13.3258 1.1909 13.4172 1.26556 13.4779 1.35698ZM5.33333 6.9334V4.80006H1.06667V6.9334H5.33333ZM1.06667 8.00006V14.9334L5.33333 14.9334V8.00006H1.06667ZM6.4 8.00006H9.6V14.9334H6.4V8.00006ZM10.6667 8.00006V14.9334H14.9333V8.00006H10.6667ZM14.9333 6.9334V4.80006H10.6667V6.9334H14.9333ZM2.66667 1.81657C2.66667 1.59304 2.7187 1.44958 2.78012 1.35698C2.84076 1.26556 2.93215 1.1909 3.06786 1.13891C3.35656 1.02832 3.82792 1.03245 4.40277 1.2393C5.37832 1.59034 6.44383 2.45285 6.99061 3.73091C5.96525 3.72126 4.95259 3.67436 4.14442 3.44705C3.64999 3.30799 3.28335 3.11416 3.0432 2.86385C2.8163 2.62734 2.66667 2.30409 2.66667 1.81657Z" fill="black"/>
</svg>
